<svg xmlns="http://www.w3.org/2000/svg" viewBox="0 0 275.95 100.89"><defs><style>.cls-1{fill:#f93c4b;}.cls-2{fill:#f2f2f2;}</style></defs><g id="Layer_2" data-name="Layer 2"><g id="Layer_1-2" data-name="Layer 1"><text/><path class="cls-1" d="M234.89,56V54.44c.37-.44.89-.37,1.37-.38,1.14,0,2.28,0,3.42,0,.68,0,1.07-.25,1.07-1,0-2,0-3.94,0-5.91,0-.78-.42-1-1.15-1.07a13.73,13.73,0,0,1-2.72-.1c-.36-.11-.48-.33-.29-.69a3,3,0,0,1,.58-.7c3.92-3.75,7.55-7.81,11.4-11.64a93.37,93.37,0,0,0,8.54-9.46,9.18,9.18,0,0,0,2.22-6,4.21,4.21,0,0,0-4-4.34,10.34,10.34,0,0,0-6,1.2,34.89,34.89,0,0,0-5.53,3.82c-1.25,1-1.32,1-2.33-.24a3.43,3.43,0,0,1-.61-.82c.08-.89-.65-1.19-1.17-1.64-1.68-2-3.34-3.95-5-5.9-.33-.39-.4-.61,0-1,4.47-4.06,9.4-7.25,15.51-8.16,5.83-.86,11.52-.7,16.89,2.16a15.07,15.07,0,0,1,7.71,14.43c-.51,6.61-3.91,11.62-8.32,16.15-3.58,3.68-7.48,7-11.26,10.52-.23.22-.72.38-.6.74s.66.22,1,.22c6.28,0,12.56,0,18.84,0,1.17,0,1.47.32,1.44,1.48-.08,3.34-.06,6.69,0,10,0,1-.3,1.2-1.23,1.19-3.73,0-7.46,0-11.19,0-.49-.92-1.32-1-2.24-1q-12.23,0-24.45,0C236.18,56.36,235.46,56.53,234.89,56Z"/><path class="cls-1" d="M237.71,44.66h36.81a0,0,0,0,1,0,0V57.33a0,0,0,0,1,0,0H236.25A1.36,1.36,0,0,1,234.89,56V47.48A2.82,2.82,0,0,1,237.71,44.66Z"/><path class="cls-2" d="M120.33,72.42q-1.41,5-2.83,10c-1.59,5.63-3.19,11.25-4.73,16.88-.21.79-.51,1-1.3,1q-3.94-.09-7.89,0a1.22,1.22,0,0,1-1.46-1.08q-3.6-12.94-7.33-25.85c-.1-.34-.07-.77-.53-1.12.08,1.34.14,2.58.23,3.82.54,7.82.22,15.66.32,23.49,0,.53-.15.73-.71.73-2.66,0-5.33,0-8,0-.49,0-.72-.13-.66-.64a5.42,5.42,0,0,0,0-.57q0-18.31,0-36.62c0-.93.2-1.21,1.17-1.2q5.9.09,11.77,0c.91,0,1.22.32,1.46,1.13q3.73,12.84,7.54,25.66c.08.28,0,.62.47.86.71-2.41,1.4-4.79,2.09-7.17,1.86-6.45,3.73-12.9,5.55-19.37A1.26,1.26,0,0,1,117,61.28c4,.06,8,0,12,0,.75,0,.95.21.95,1q0,18.6,0,37.19c0,.7-.17.9-.88.89-2.59,0-5.18-.06-7.77,0-.89,0-1-.26-1-1.08C120.3,90.32,120,81.39,120.33,72.42Z"/><path class="cls-2" d="M137,43.37c1.23-4.27,2.38-8.24,3.53-12.21,1.4-4.89,2.83-9.77,4.2-14.66.2-.7.48-1,1.23-.95q6.06.06,12.11,0c.82,0,1,.24,1,1q0,18.42,0,36.84c0,.76-.14,1.05-1,1-2.55-.06-5.11-.07-7.66,0-.89,0-1.05-.26-1-1.08.11-8.78-.2-17.57.35-26.34a.47.47,0,0,0-.21-.38c-.26.91-.53,1.82-.78,2.73-2.25,8-4.52,16-6.73,24-.22.79-.5,1.1-1.36,1.08-2.63-.07-5.26-.06-7.88,0a1.19,1.19,0,0,1-1.4-1c-2.4-8.58-4.85-17.15-7.29-25.72a1.94,1.94,0,0,0-.53-1.13c.12,2.17.23,4.2.34,6.23.35,6.95.07,13.91.17,20.86,0,.59-.15.79-.76.78-2.58,0-5.17-.05-7.76,0-.79,0-.84-.32-.84-.94,0-2.62,0-5.24,0-7.87,0-9.58,0-19.16,0-28.74,0-1,.17-1.36,1.28-1.34,3.88.08,7.76.07,11.64,0a1.26,1.26,0,0,1,1.47,1.11c2.49,8.55,5,17.1,7.53,25.65C136.74,42.55,136.84,42.79,137,43.37Z"/><path class="cls-2" d="M106.63,26.79A14.94,14.94,0,0,0,94.7,15.53a26.46,26.46,0,0,0-12.23.14A15.14,15.14,0,0,0,71.28,25.88a26.23,26.23,0,0,0-1.38,9,28.18,28.18,0,0,0,.53,6c1.42,7,5.31,11.73,12.43,13.45a26.41,26.41,0,0,0,10.44.29c6.79-1.07,11.4-4.81,13.32-11.49A29.28,29.28,0,0,0,106.63,26.79Zm-10.69,14a6.65,6.65,0,0,1-6.81,5.43c-3.82.08-6.2-1.59-7.36-5.19a20.35,20.35,0,0,1-.84-6.06,20.08,20.08,0,0,1,.92-6.4,7.47,7.47,0,0,1,10.91-4.06A7.12,7.12,0,0,1,96,29.26,22.38,22.38,0,0,1,95.94,40.75Z"/><path class="cls-2" d="M67.06,53.28q-5-7.48-10-15c-.43-.63-.5-1,.27-1.37a9.23,9.23,0,0,0,1.75-1.26,11.24,11.24,0,0,0,3.76-11.41c-.84-4.23-3.74-6.54-7.69-7.74a19.78,19.78,0,0,0-5.5-.9c-4.76-.07-9.52,0-14.28-.09-.74,0-.87.26-.87.92q0,18.54,0,37.07c0,.72.21.89.9.88,2.86,0,5.71-.05,8.57,0,.84,0,1.09-.18,1.08-1.06-.05-4,0-8.06,0-12.09,0-.32-.16-.71.17-1a3,3,0,0,1,2.9.71l7.35,12.6c.25.42.43.8,1.09.8,3.69,0,7.37,0,11.27,0C67.46,53.9,67.27,53.59,67.06,53.28ZM50.5,31.56c-1.56.9-3.29.79-5,.79-.52,0-.5-.34-.5-.69V27.9c0-1.18,0-2.36,0-3.53,0-.73.24-.91.91-.88a16.17,16.17,0,0,1,3.74.32,3.36,3.36,0,0,1,2.73,3C52.56,28.67,52.39,30.47,50.5,31.56Z"/><path class="cls-2" d="M165.05,67.19c-2.19-3.79-5.79-5.25-9.88-5.65-5.27-.53-10.57-.11-15.86-.25-.87,0-1.06.22-1.05,1.06,0,6.16,0,12.31,0,18.47s0,12.31,0,18.46c0,.75.1,1.07,1,1,2.89-.06,5.78,0,8.67,0,.77,0,.94-.23.93-.95,0-3.65,0-7.3,0-10.94,0-.83.16-1.12,1.05-1.1a33.62,33.62,0,0,0,5.58-.22A13.35,13.35,0,0,0,165.05,67.19ZM154.1,78c-1.5.92-3.19.86-4.86.83-.55,0-.43-.44-.43-.76,0-1.29,0-2.57,0-3.86s0-2.35,0-3.53c0-.62.14-.9.81-.85.9.06,1.82,0,2.73.1a3.59,3.59,0,0,1,3.55,2.94A4.65,4.65,0,0,1,154.1,78Z"/><path class="cls-2" d="M24.87,19.06c-2.65-2.5-6-3.31-9.44-3.42-4.72-.13-9.44,0-14.16-.1-1,0-1.28.17-1.27,1.22.06,6,0,12.09,0,18.14s0,12.31,0,18.47c0,.87.23,1.07,1.07,1.06,2.78-.06,5.56,0,8.34,0,.84,0,1.17-.14,1.15-1.09-.06-3.57,0-7.15-.05-10.72,0-.93.28-1.13,1.15-1.11a27.65,27.65,0,0,0,6-.34c4.57-.87,8-3.21,9.65-7.72a16,16,0,0,0,.88-5.83C28.18,24.34,27.33,21.38,24.87,19.06Zm-9.6,13.37A10.15,10.15,0,0,1,11,33c-.56,0-.45-.4-.45-.72,0-1.25,0-2.51,0-3.76s.06-2.36,0-3.54c0-.78.26-1,1-.91s1.53,0,2.29,0a3.75,3.75,0,0,1,3.84,3.07C18.07,29.54,17.16,31.59,15.27,32.43Z"/><path class="cls-2" d="M239.75,15.51c1.3-.19,1.33.69,1.33,1.59a5.84,5.84,0,0,1,.38,3c0,.87,0,1.75,0,2.62-.07,1.25-.42,1.63-1.68,1.67-1.86.06-3.72,0-5.59,0h-4.34c-.8,0-1.18.34-1.17,1.16s0,1.9,0,2.85.35,1.21,1.22,1.2c2.51,0,5,0,7.53,0,.46,0,.92,0,1.37,0,1.22.06,1.49.3,1.52,1.5q.07,3,0,6c0,1.3-.32,1.58-1.67,1.6-2.74,0-5.47,0-8.21,0-1.65,0-1.74.11-1.76,1.75,0,1.06,0,2.12,0,3.19,0,1.55.07,1.62,1.59,1.63s3.12,0,4.68,0c.52,0,1.08-.07,1.49.38,1.17,0,2.35.08,3.53.05.74,0,1.09.13,1.07,1-.05,2.24,0,4.48,0,6.71,0,.69-.18.93-.89.91-1.75,0-3.5,0-5.25,0-5.28,0-10.57,0-15.85,0-.94,0-1.2-.23-1.2-1.18q.06-18.24,0-36.46c0-1,.27-1.26,1.26-1.25,6.47.05,12.93,0,19.4,0C238.92,15.56,239.33,15.53,239.75,15.51Z"/><path class="cls-2" d="M184.66,43.15a32.26,32.26,0,0,0,8.76,2.92,13.66,13.66,0,0,0,5.33.14c1.26-.28,2.32-.82,2.59-2.22s-.54-2.29-1.65-3a49.8,49.8,0,0,0-4.8-2.38,32.57,32.57,0,0,1-5.56-3.1c-3.6-2.62-4.73-6.28-4.33-10.52a9.81,9.81,0,0,1,6.87-8.7c5.42-2,10.9-1.66,16.33.05,1,.31,2,.75,3,1.09.63.21.67.51.43,1.08-.9,2.17-1.78,4.36-2.61,6.56-.25.67-.51.73-1.14.45a22.69,22.69,0,0,0-8.56-2.17,6.07,6.07,0,0,0-2.24.34,2.23,2.23,0,0,0-.74,4,12.27,12.27,0,0,0,2.53,1.53c2.3,1.17,4.68,2.17,7,3.4,4.57,2.47,6.64,6.26,6,11.39a11.15,11.15,0,0,1-8.33,9.84,26.1,26.1,0,0,1-18.18-1.12c-.41-.18-.66-.37-.65-.9C184.68,49,184.66,46.19,184.66,43.15Z"/><path class="cls-2" d="M181.22,58C173,72.37,164.93,86.5,156.79,100.7h48.85ZM174.5,91.27c2-3.79,3.93-7.59,6-11.55,2.11,4.09,4.14,8,6.28,12.15H175C174.63,91.87,174.18,91.91,174.5,91.27Z"/><path class="cls-2" d="M229.18,89.8c0,2.84,0,5.5,0,8.16a.89.89,0,0,1-.69,1,26.47,26.47,0,0,1-17.77.75A13.93,13.93,0,0,1,201.65,91a26.35,26.35,0,0,1-.5-18.31c2.44-7.22,7.7-11.1,15.23-11.83A27.43,27.43,0,0,1,230,63.09c.71.31.87.58.56,1.32q-1.31,3.15-2.48,6.36c-.29.81-.55,1-1.41.61a18.68,18.68,0,0,0-6.75-1.91c-4.43-.24-7.18,1.6-8.44,5.86a19.58,19.58,0,0,0-.09,11c1.15,4.08,4.11,6.07,8.36,5.88a27,27,0,0,0,8.27-2Z"/><path class="cls-2" d="M234.89,61.26l19.61,0c2.55,0,5.1.08,7.64,0,1.13-.05,1.49.32,1.39,1.35,0,2.13-.06,4.26,0,6.38,0,.74-.18,1-.94,1-2.47,0-4.95,0-7.42,0-.93,0-1.21.2-1.21,1.17,0,9.32,0,18.63,0,28,0,1-.26,1.32-1.3,1.29-2.74-.08-5.48-.06-8.22,0-.86,0-1.07-.21-1.07-1.07,0-9.35,0-18.7.05-28.05,0-1.06-.28-1.32-1.31-1.29-2.43.08-4.87,0-7.31,0-.77,0-1-.23-1-1,0-2.24.06-4.49,0-6.73C233.83,61.42,234.18,61.23,234.89,61.26Z"/><path class="cls-2" d="M66.4,80.8c0-6.08,0-12.16,0-18.24,0-.94.14-1.32,1.22-1.29,2.81.1,5.63,0,8.44,0,.68,0,1,.08,1,.9q0,18.63,0,37.27c0,.75-.26.87-.91.86-2.9,0-5.79,0-8.68,0-.85,0-1.08-.21-1.07-1.07C66.42,93.11,66.4,87,66.4,80.8Z"/><path class="cls-2" d="M167.47,34.91c0-6.08,0-12.16,0-18.24,0-.89.22-1.15,1.12-1.13,2.86.06,5.71,0,8.57,0,.68,0,.9.16.9.88Q178,35,178,53.6c0,.65-.19.83-.83.82-2.93,0-5.86-.05-8.79,0-.86,0-1-.3-1-1C167.48,47.23,167.47,41.07,167.47,34.91Z"/><path class="cls-1" d="M180.48,70.13l-14,24.53c-.62,1.08-.6,1.1.62,1.1h28.07C190.21,87.14,185.39,78.71,180.48,70.13Zm-6,21.14c2-3.79,3.93-7.59,6-11.55,2.11,4.09,4.14,8,6.28,12.15H175C174.63,91.87,174.18,91.91,174.5,91.27Z"/></g></g></svg>